<svg id="Capa_1" enable-background="new 0 0 512 512" height="512" viewBox="0 0 512 512" width="512" xmlns="http://www.w3.org/2000/svg"><g><path d="m69.675 162.042c-28.183 0-51.029 22.846-51.029 51.029v94.212c-11.18 6.81-18.645 19.113-18.645 33.161h120.703v-127.373c0-28.183-22.846-51.029-51.029-51.029z" fill="#365e7d"/><path d="m87.493 165.231c-19.409 7.232-33.223 25.919-33.223 47.831v94.22c-11.177 6.81-18.646 19.11-18.646 33.161h-35.624c0-14.052 7.469-26.352 18.646-33.161v-94.22c0-28.176 22.849-51.025 51.025-51.025 6.264.001 12.269 1.134 17.822 3.194z" fill="#2b4d66"/><path d="m265.849 345.512v7.108c0 33.553-27.207 60.75-60.76 60.75h-17.76l-22.211 21.036 14.927 49.675 7.283 24.23h-40.641l-6.851-24.23-15.35-54.29 22.2-84.279c0-32.904 26.682-59.575 59.586-59.575 32.895 0 59.577 26.671 59.577 59.575z" fill="#8b5e5e"/><path d="m408.879 306.664v201.648h-50.355v-186.02z" fill="#9d6b6b"/><path d="m408.879 306.664v40.527c-11.693 20.387-29.247 36.994-50.355 47.512v-72.411z" fill="#8b5e5e"/><path d="m350.297 322.288h29.055v186.019h-29.055z" fill="#8b5e5e"/><path d="m69.769 392.516h228.894c65.819 0 119.176-53.357 119.176-119.176v-84.154h-232.125c-64.035 0-115.945 51.91-115.945 115.945z" fill="#9d6b6b"/><g fill="#9d6b6b"><path d="m512 16.349h-38.311c-19.046 0-34.486 15.44-34.486 34.486v14.275h38.311c19.046 0 34.486-15.44 34.486-34.486z"/><path d="m237.987 16.349h38.311c19.046 0 34.486 15.44 34.486 34.486v14.275h-38.311c-19.046 0-34.486-15.44-34.486-34.486z"/></g><path d="m425.467 250.569 20.274-12.216c16.411-9.889 25.935-28.107 24.687-47.227l-6.224-95.414c-2.323-35.609-31.882-63.303-67.567-63.303h-43.289c-35.684 0-65.244 27.694-67.567 63.303l-6.224 95.414c-1.247 19.12 8.276 37.338 24.687 47.227l20.274 12.216" fill="#9d6b6b"/><path d="m345.991 139.978v72.789l-.381 37.802h-21.091l-20.275-12.216c-16.409-9.884-25.93-28.105-24.686-47.227l6.175-94.665h16.741c24.033 0 43.517 19.484 43.517 43.517z" fill="#8b5e5e"/><path d="m403.999 139.975v72.789l.381 37.802h21.091l20.275-12.216c16.409-9.884 25.93-28.105 24.686-47.227l-6.175-94.665h-16.741c-24.033 0-43.517 19.484-43.517 43.517z" fill="#aa8080"/><g><path d="m308.082 153.672c-4.267 0-7.726-3.459-7.726-7.726v-12.103c0-4.267 3.459-7.726 7.726-7.726s7.726 3.459 7.726 7.726v12.103c.001 4.267-3.458 7.726-7.726 7.726z" fill="#2b4d66"/></g><g><path d="m441.904 153.672c-4.267 0-7.726-3.459-7.726-7.726v-12.103c0-4.267 3.459-7.726 7.726-7.726s7.726 3.459 7.726 7.726v12.103c0 4.267-3.459 7.726-7.726 7.726z" fill="#2b4d66"/></g><path d="m403.998 212.765c-11.653 0-22.07 5.276-29.005 13.565-6.935-8.289-17.352-13.565-29.005-13.565-20.878 0-37.804 16.925-37.804 37.804s16.925 37.804 37.804 37.804h58.009c20.879 0 37.804-16.925 37.804-37.804.001-20.879-16.925-37.804-37.803-37.804z" fill="#f1d59d"/><path d="m372.062 288.371h-26.068c-20.881 0-37.809-16.928-37.809-37.803 0-20.881 16.928-37.802 37.809-37.802 4.586 0 8.97.817 13.034 2.306-14.458 5.312-24.768 19.195-24.768 35.496 0 20.875 16.921 37.803 37.802 37.803z" fill="#f1b986"/><path d="m325.833 52.838v5.7c0 9.05 7.337 16.387 16.387 16.387 9.05 0 16.387-7.337 16.387-16.387v22.846c0 8.885 6.909 16.453 15.789 16.769 9.323.331 16.984-7.128 16.984-16.376v-23.239c0 9.05 7.337 16.387 16.387 16.387 9.05 0 16.387-7.337 16.387-16.387v-5.7c0-27.15-22.01-49.16-49.16-49.16-27.151 0-49.161 22.01-49.161 49.16z" fill="#365e7d"/><path d="m350.06 52.841v5.697c0 4.253 1.619 8.126 4.271 11.038-.169.187-.344.369-.526.55-2.966 2.966-7.063 4.803-11.588 4.803-9.05 0-16.385-7.34-16.385-16.391v-5.697c0-13.575 5.504-25.864 14.397-34.763 8.899-8.893 21.188-14.397 34.763-14.397 4.181 0 8.235.52 12.113 1.504-8.706 2.205-16.493 6.736-22.65 12.893-8.891 8.899-14.395 21.187-14.395 34.763z" fill="#2b4d66"/><path d="m132.051 285.935c-32.903 0-59.576 26.673-59.576 59.576l-22.208 84.279 22.208 78.517h40.635l-22.208-73.899 22.208-21.033h17.763c33.554 0 60.754-27.201 60.754-60.754v-7.11c0-32.903-26.673-59.576-59.576-59.576z" fill="#9d6b6b"/><path d="m250.375 189.192c-64.026 0-115.937 51.911-115.937 115.947v50.654l-15.175 57.597h-6.161l-22.211 21.026 14.927 49.665 7.283 24.24h-40.63l-6.861-24.24-15.35-54.28 19.501-74.008v-50.654c0-64.036 51.911-115.947 115.947-115.947z" fill="#8b5e5e"/><path d="m403.998 257.68c-4.267 0-7.726-3.459-7.726-7.726v-.515c0-4.267 3.459-7.726 7.726-7.726s7.726 3.459 7.726 7.726v.515c0 4.267-3.459 7.726-7.726 7.726z" fill="#2b4d66"/><path d="m345.61 258.117c-4.267 0-7.726-3.459-7.726-7.726v-.515c0-4.267 3.459-7.726 7.726-7.726s7.726 3.459 7.726 7.726v.515c.001 4.266-3.459 7.726-7.726 7.726z" fill="#2b4d66"/><path d="m308.158 343.874h50.366v164.437h-50.366z" fill="#9d6b6b"/><path d="m308.16 508.307h18.499v-145.938c0-10.217-8.282-18.499-18.499-18.499z" fill="#8b5e5e"/><g fill="#365e7d"><path d="m105.82 484.082 7.284 24.24h-40.631l-6.861-24.24z"/><path d="m180.045 484.082 7.283 24.23h-40.64l-6.851-24.23z"/><path d="m308.158 484.082h100.721v24.23h-100.721z"/></g><path d="m308.158 484.082h18.501v24.23h-18.501z" fill="#2b4d66"/><path d="m358.518 484.082h20.834v24.23h-20.834z" fill="#2b4d66"/></g></svg>