<svg width="51" height="45" viewBox="0 0 51 45" fill="none" xmlns="http://www.w3.org/2000/svg">
<path d="M34.1044 23.8416C31.8095 20.2615 27.901 18.1238 23.649 18.1238C19.3973 18.1238 15.4884 20.2615 13.1939 23.8416L7.66401 32.4683C6.74652 33.8998 6.32318 35.553 6.43952 37.2491C6.55586 38.9456 7.20138 40.5253 8.30603 41.8183C9.41145 43.1109 10.8721 43.9941 12.5301 44.3731C14.188 44.7517 15.8876 44.5902 17.4448 43.9058L17.5463 43.8607C21.4649 42.1716 25.9439 42.1868 29.8527 43.9058C30.8609 44.349 31.929 44.5731 33.0068 44.5731C33.5927 44.5731 34.1822 44.5066 34.7663 44.3735C36.4242 43.9949 37.8849 43.1117 38.9907 41.8191C40.0957 40.5265 40.7416 38.9464 40.8584 37.2499C40.9751 35.553 40.5518 33.8998 39.6343 32.4679L34.1044 23.8416ZM36.7188 39.8759C35.3122 41.5203 33.0367 42.0401 31.0562 41.1693C28.7022 40.1339 26.1754 39.6164 23.6478 39.6164C21.1225 39.6164 18.5961 40.1335 16.2436 41.1677L16.1767 41.1973C14.2114 42.0284 11.9694 41.502 10.5784 39.8759C9.17333 38.2312 9.01341 35.9028 10.1807 34.0815L15.711 25.4548C17.4533 22.7365 20.4206 21.1136 23.649 21.1136C26.8773 21.1136 29.845 22.7365 31.5877 25.4548L37.1172 34.0811C38.2849 35.9032 38.1246 38.232 36.7188 39.8759Z" fill="#3E92CC"/>
<path d="M9.15358 23.8303C10.7987 23.1984 12.0485 21.8728 12.673 20.0973C13.2667 18.4079 13.2181 16.5005 12.5352 14.7262C11.852 12.9531 10.6092 11.5056 9.03607 10.65C7.38279 9.75158 5.56687 9.60528 3.92449 10.2383C0.620264 11.5087 -0.896052 15.5919 0.544779 19.3425C1.69573 22.3276 4.38012 24.212 7.09408 24.212C7.78707 24.212 8.482 24.0891 9.15358 23.8303ZM3.33461 18.2686C2.4856 16.0585 3.2315 13.7075 4.9984 13.0282C5.31746 12.9052 5.65481 12.8441 5.99916 12.8441C6.53067 12.8441 7.07969 12.9893 7.60808 13.2768C8.55826 13.7931 9.31739 14.6896 9.7454 15.8005C10.173 16.9122 10.2111 18.0857 9.8524 19.1055C9.52361 20.0401 8.89444 20.7273 8.08122 21.0397L8.07967 21.0405C6.31511 21.7206 4.18635 20.4767 3.33461 18.2686Z" fill="#3E92CC"/>
<path d="M19.8834 17.0717C24.014 17.0717 27.3747 13.243 27.3747 8.53682C27.3747 3.82951 24.014 0 19.8834 0C15.7531 0 12.3928 3.82951 12.3928 8.53682C12.3928 13.243 15.7531 17.0717 19.8834 17.0717ZM19.8834 2.98944C22.3654 2.98944 24.3852 5.47812 24.3852 8.53682C24.3852 11.5944 22.3654 14.0822 19.8834 14.0822C17.4013 14.0822 15.3823 11.5944 15.3823 8.53682C15.3823 5.47812 17.4013 2.98944 19.8834 2.98944Z" fill="#3E92CC"/>
<path d="M32.8208 19.1685H32.8212C33.4566 19.3794 34.1048 19.4802 34.7503 19.4802C37.7627 19.4802 40.6985 17.2876 41.8187 13.918C42.4638 11.9784 42.4214 9.92744 41.6992 8.14342C40.9436 6.27614 39.5433 4.92052 37.7557 4.32598C35.9682 3.73221 34.034 3.97968 32.3107 5.02324C30.6644 6.0205 29.403 7.63759 28.759 9.57725C27.3991 13.669 29.2213 17.9717 32.8208 19.1685ZM31.5959 10.52C32.0165 9.25352 32.8204 8.20996 33.8597 7.5804C34.8212 6.99792 35.8702 6.84967 36.813 7.16289C37.7553 7.47651 38.5063 8.2228 38.9281 9.2648C39.3837 10.3909 39.4032 11.7083 38.9818 12.9749C38.1417 15.5024 35.8009 17.0082 33.764 16.3316C31.7286 15.6546 30.7559 13.0476 31.5959 10.52Z" fill="#3E92CC"/>
<path d="M48.5969 18.1724L48.5957 18.1713C45.7472 16.067 41.4869 16.9791 39.0982 20.2055C36.7119 23.4334 37.085 27.773 39.9294 29.8788C40.9667 30.6473 42.1924 31.0146 43.4468 31.0146C45.6331 31.0146 47.9078 29.8987 49.428 27.8466C51.8144 24.6186 51.4416 20.279 48.5969 18.1724ZM47.0253 26.068C45.6149 27.9719 43.2301 28.6034 41.7083 27.4762C40.1877 26.3505 40.0951 23.8859 41.5017 21.9833C42.4367 20.7202 43.8024 20.0175 45.0612 20.0175C45.6977 20.0175 46.3071 20.1973 46.8191 20.5759C48.3385 21.7027 48.4308 24.1665 47.0253 26.068Z" fill="#3E92CC"/>
</svg>
